<!DOCTYPE svg PUBLIC "-//W3C//DTD SVG 1.1//EN" "http://www.w3.org/Graphics/SVG/1.1/DTD/svg11.dtd">
<!-- Uploaded to: SVG Repo, www.svgrepo.com, Transformed by: SVG Repo Mixer Tools -->
<svg fill="#ffffff" height="800px" width="800px" version="1.1" id="Layer_1" xmlns="http://www.w3.org/2000/svg" xmlns:xlink="http://www.w3.org/1999/xlink" viewBox="0 0 512 512" xml:space="preserve" stroke="#ffffff">
<g id="SVGRepo_bgCarrier" stroke-width="0"/>
<g id="SVGRepo_tracerCarrier" stroke-linecap="round" stroke-linejoin="round"/>
<g id="SVGRepo_iconCarrier"> <g> <g> <path d="M421.905,262.348l-17.102-59.858c-1.189-4.157-5.455-6.624-9.653-5.574l-28.723,7.181l-31.072-46.606 c-2.456-3.685-7.433-4.68-11.117-2.223l-46.431,30.953l-2.771-2.217c21.603-13.518,36.011-37.513,36.011-64.822 c0-17.425-12.039-42.499-35.782-74.525c-17.173-23.164-34.069-41.344-34.78-42.107c-3.124-3.35-8.604-3.35-11.729,0 c-0.711,0.762-17.607,18.942-34.78,42.107c-23.742,32.026-35.781,57.1-35.781,74.525c0,25.775,12.839,48.593,32.443,62.443 l-7.324,4.883l-46.86-31.24c-4.333-2.888-10.409-0.793-12.052,4.136l-14.864,44.593l-35.816-7.164 c-4.094-0.816-8.131,1.644-9.28,5.659L47.34,262.349c-0.202,0.707-0.309,1.468-0.309,2.202v59.858 c0,50.828,19.997,98.415,56.306,133.994c3.342,3.274,8.92,2.93,11.855-0.7c2.56-3.166,2.272-7.906-0.634-10.752 c-7.897-7.738-14.939-16.104-21.103-24.976c43.237,23.23,91.521,35.402,141.167,35.402c49.569,0,97.77-12.134,140.952-35.29 c-31.011,44.611-82.623,73.879-140.952,73.879c-31.831,0-62.903-8.778-89.858-25.386c-3.769-2.322-8.707-1.151-11.031,2.62 c-2.323,3.769-1.149,8.707,2.62,11.03c29.485,18.168,63.466,27.77,98.269,27.77c103.438,0,187.591-84.153,187.591-187.591v-59.666 c0-0.004,0-0.009,0-0.014C422.214,263.926,422.127,263.122,421.905,262.348z M174.23,119.182c0-25.729,39.318-75.436,60.392-99.23 c21.074,23.794,60.393,73.5,60.393,99.23c0,28.572-19.951,52.555-46.649,58.796c6.231-17.89,9.649-38.159-7.074-63.243 c-2.455-3.683-7.434-4.68-11.117-2.223c-3.683,2.455-4.68,7.433-2.223,11.116c14.589,21.886,9.696,37.928,2.782,55.807 C199.241,177.424,174.23,151.175,174.23,119.182z M77.828,214.004l35.507,7.102c3.966,0.792,7.899-1.49,9.178-5.326l13.783-41.35 l42.574,28.382c2.694,1.796,6.201,1.796,8.893,0l18.829-12.553c5.788,2.291,11.918,3.892,18.294,4.706 c-2.038,6.014-3.735,12.32-4.475,19.02c-59.943,1.721-118.252,14.116-151.578,31.503L77.828,214.004z M220.667,230.018 c0.966,6.605,3.072,13.583,6.789,21.016c2.083,4.17,7.445,5.675,11.406,3.219c3.473-2.152,4.759-6.74,2.934-10.39 c-2.477-4.952-4.04-9.595-4.907-14.037c15.961,0.076,32.168,0.947,48.218,2.61c4.417,0.465,8.346-2.744,8.8-7.148 c0.456-4.404-2.743-8.344-7.148-8.8c-16.703-1.731-33.573-2.632-50.185-2.698c0.915-6.234,2.889-12.291,5.23-18.531 c5.924-0.555,11.647-1.796,17.103-3.63l13.462,10.771c2.728,2.182,6.55,2.348,9.455,0.41l44.637-29.757l29.758,44.636 c1.879,2.818,5.322,4.153,8.615,3.331l26.682-6.67l8.903,31.158c-17.762-9.259-42.965-17.304-72.818-23.038 c-4.352-0.837-8.549,2.014-9.384,6.361c-0.835,4.348,2.013,8.55,6.361,9.385c34.911,6.704,63.343,16.738,78.435,27.479 l-25.233,31.541l-28.407-14.203c-3.291-1.648-7.28-0.841-9.672,1.953l-44.918,52.405l-53.832-69.212 c-3.067-3.946-9.165-4.086-12.414-0.295l-45.673,53.285l-45.184-45.185c-3.331-3.33-8.989-3.014-11.929,0.661l-27.583,34.478 l-32.256-45.159C89.762,248.959,150.661,232.046,220.667,230.018z M391.446,393.931c-0.203,0.111-0.405,0.227-0.602,0.357 c-46.341,30.784-100.363,47.056-156.222,47.056c-55.76,0-109.698-16.217-155.987-46.899c-0.315-0.21-0.643-0.384-0.975-0.543 c-6.465-14.589-10.851-30.079-13.017-46.11c50.036,34.742,108.507,53.043,169.979,53.043c61.478,0,119.928-18.295,169.955-53.029 C402.358,364.005,397.873,379.49,391.446,393.931z M406.18,324.409c0,0.812-0.019,1.619-0.031,2.429 c-49.606,37.92-108.906,57.964-171.526,57.964c-62.575,0-121.866-20.024-171.46-57.907c-0.021-0.017-0.045-0.03-0.067-0.046 c-0.011-0.812-0.03-1.625-0.03-2.439v-34.843l28.216,39.502c3.042,4.26,9.515,4.435,12.783,0.348l28.61-35.762l44.973,44.974 c3.254,3.253,8.762,3.042,11.756-0.451l44.918-52.405l53.832,69.212c3.068,3.945,9.164,4.086,12.414,0.295l47.233-55.106 l28.606,14.303c3.383,1.692,7.484,0.79,9.846-2.162l19.93-24.91V324.409z"/> </g> </g> <g> <g> <path d="M89.253,102.614h-8.551c-4.428,0-8.017,3.589-8.017,8.017s3.588,8.017,8.017,8.017h8.551c4.428,0,8.017-3.589,8.017-8.017 S93.681,102.614,89.253,102.614z"/> </g> </g> <g> <g> <path d="M46.497,102.614h-8.551c-4.428,0-8.017,3.589-8.017,8.017s3.588,8.017,8.017,8.017h8.551c4.428,0,8.017-3.589,8.017-8.017 S50.925,102.614,46.497,102.614z"/> </g> </g> <g> <g> <path d="M63.599,119.716c-4.428,0-8.017,3.589-8.017,8.017v8.551c0,4.427,3.588,8.017,8.017,8.017 c4.428,0,8.017-3.589,8.017-8.017v-8.551C71.616,123.305,68.028,119.716,63.599,119.716z"/> </g> </g> <g> <g> <path d="M63.599,76.96c-4.428,0-8.017,3.589-8.017,8.017v8.551c0,4.427,3.588,8.017,8.017,8.017c4.428,0,8.017-3.589,8.017-8.017 v-8.551C71.616,80.55,68.028,76.96,63.599,76.96z"/> </g> </g> <g> <g> <path d="M474.054,162.472h-8.551c-4.428,0-8.017,3.589-8.017,8.017s3.588,8.017,8.017,8.017h8.551 c4.428,0,8.017-3.589,8.017-8.017S478.483,162.472,474.054,162.472z"/> </g> </g> <g> <g> <path d="M431.299,162.472h-8.551c-4.428,0-8.017,3.589-8.017,8.017s3.588,8.017,8.017,8.017h8.551 c4.428,0,8.017-3.589,8.017-8.017S435.727,162.472,431.299,162.472z"/> </g> </g> <g> <g> <path d="M448.401,179.574c-4.428,0-8.017,3.589-8.017,8.017v8.551c0,4.427,3.588,8.017,8.017,8.017 c4.428,0,8.017-3.589,8.017-8.017v-8.551C456.418,183.163,452.829,179.574,448.401,179.574z"/> </g> </g> <g> <g> <path d="M448.401,136.818c-4.428,0-8.017,3.589-8.017,8.017v8.551c0,4.427,3.588,8.017,8.017,8.017 c4.428,0,8.017-3.589,8.017-8.017v-8.551C456.418,140.408,452.829,136.818,448.401,136.818z"/> </g> </g> <g> <g> <path d="M362.889,25.653h-8.551c-4.428,0-8.017,3.589-8.017,8.017c0,4.427,3.588,8.017,8.017,8.017h8.551 c4.428,0,8.017-3.589,8.017-8.017C370.906,29.243,367.318,25.653,362.889,25.653z"/> </g> </g> <g> <g> <path d="M320.134,25.653h-8.551c-4.428,0-8.017,3.589-8.017,8.017c0,4.427,3.588,8.017,8.017,8.017h8.551 c4.428,0,8.017-3.589,8.017-8.017C328.15,29.243,324.562,25.653,320.134,25.653z"/> </g> </g> <g> <g> <path d="M337.236,42.756c-4.428,0-8.017,3.589-8.017,8.017v8.551c0,4.427,3.588,8.017,8.017,8.017 c4.428,0,8.017-3.589,8.017-8.017v-8.551C345.253,46.345,341.664,42.756,337.236,42.756z"/> </g> </g> <g> <g> <path d="M337.236,0c-4.428,0-8.017,3.589-8.017,8.017v8.551c0,4.427,3.588,8.017,8.017,8.017c4.428,0,8.017-3.589,8.017-8.017 V8.017C345.253,3.589,341.664,0,337.236,0z"/> </g> </g> </g>
</svg>